<svg width="120" height="120" viewBox="0 0 120 120" fill="none" xmlns="http://www.w3.org/2000/svg">
<g clip-path="url(#clip0_102_255)">
<path d="M61.0736 78.3345C71.8306 78.3345 80.5509 69.6143 80.5509 58.8573C80.5509 48.1004 71.8306 39.3801 61.0736 39.3801C50.3167 39.3801 41.5964 48.1004 41.5964 58.8573C41.5964 69.6143 50.3167 78.3345 61.0736 78.3345Z" fill="#FFB6B6"/>
<path d="M49.8924 81.2148L49.0125 72.32L66.5842 69.0343L76.9601 94.2975L58.915 115.049L46.0579 89.7862L49.8924 81.2148Z" fill="#FFB6B6"/>
<path d="M48.7303 76.7724L52.5719 77.6404C52.5719 77.6404 49.5521 68.0642 50.5771 67.1499C51.6021 66.2357 54.1139 67.6762 54.1139 67.6762L56.7535 70.6356L59.9687 67.3621C59.9687 67.3621 63.4592 63.0218 64.8259 61.8028C66.1926 60.5838 63.9974 56.0591 63.9974 56.0591C63.9974 56.0591 84.2738 50.5916 76.7289 40.7569C76.7289 40.7569 72.3054 33.0461 70.8648 35.558C69.4243 38.0698 67.7066 34.0805 67.7066 34.0805L62.4614 35.0779C62.4614 35.0779 52.1093 28.9741 42.2839 42.032C32.4586 55.0899 48.7303 76.7724 48.7303 76.7724Z" fill="#2F2E41"/>
<path d="M97.7053 106.68C87.0609 115.311 73.8925 120 60 120C47.3143 120 35.2308 116.089 25.1233 108.839C25.1413 108.65 25.1594 108.462 25.1752 108.275C25.4436 105.343 25.6827 102.492 25.8406 100.128C26.4519 90.9496 47.8646 84.8324 47.8646 84.8324C47.8646 84.8324 47.9616 84.9293 48.1556 85.0985C49.3376 86.1361 54.1353 89.8985 62.5489 90.9496C70.0511 91.888 72.521 87.4376 73.2677 85.306C73.4932 84.6564 73.5609 84.2211 73.5609 84.2211L95.5849 94.6218C97.0218 96.6745 97.5835 101.096 97.694 106.065C97.6985 106.27 97.703 106.473 97.7053 106.68Z" fill="#304155"/>
<mask id="path-5-inside-1_102_255" fill="white">
<path d="M102.426 17.5737C91.094 6.24135 76.0263 0 60 0C43.9737 0 28.906 6.24135 17.5737 17.5737C6.24136 28.906 0 43.9737 0 60C0 74.6278 5.19926 88.4572 14.7271 99.3767C15.6361 100.421 16.5857 101.438 17.5737 102.426C17.806 102.659 18.0406 102.891 18.2775 103.117C18.909 103.728 19.5519 104.326 20.206 104.905C20.603 105.259 21.0045 105.607 21.4105 105.947C21.7286 106.216 22.0466 106.48 22.3692 106.739C22.3759 106.746 22.3805 106.75 22.3872 106.755C23.2827 107.477 24.194 108.171 25.1233 108.839C35.2308 116.089 47.3143 120 60 120C73.8925 120 87.0609 115.311 97.7053 106.68C98.5737 105.977 99.4241 105.246 100.259 104.49C100.996 103.823 101.718 103.135 102.426 102.426C102.65 102.203 102.873 101.977 103.092 101.75C103.701 101.123 104.292 100.484 104.869 99.8368C114.652 88.8474 120 74.8353 120 60C120 43.9737 113.759 28.906 102.426 17.5737ZM104.723 99.2752C104.159 99.9158 103.581 100.547 102.99 101.163C102.07 102.122 101.12 103.051 100.139 103.947C99.7669 104.289 99.3902 104.623 99.009 104.955C98.5759 105.332 98.1384 105.701 97.694 106.065C94.191 108.941 90.3541 111.422 86.2511 113.443C84.6293 114.244 82.9669 114.972 81.2662 115.624C74.6594 118.159 67.4887 119.549 60 119.549C52.7729 119.549 45.8436 118.254 39.4308 115.886C36.7985 114.916 34.2541 113.763 31.8113 112.444C31.4526 112.25 31.0963 112.053 30.7421 111.853C28.879 110.797 27.0767 109.644 25.3466 108.399C25.2902 108.359 25.2316 108.316 25.1752 108.275C23.9436 107.386 22.7459 106.45 21.5887 105.467C21.1647 105.108 20.7451 104.745 20.3323 104.373C19.6602 103.775 19.0015 103.159 18.3587 102.528C17.1406 101.335 15.9767 100.092 14.8647 98.7993C5.88497 88.3692 0.451128 74.8083 0.451128 60C0.451128 27.1647 27.1647 0.451128 60 0.451128C92.8353 0.451128 119.549 27.1647 119.549 60C119.549 75.0361 113.948 88.7865 104.723 99.2752Z"/>
</mask>
<path d="M102.426 17.5737C91.094 6.24135 76.0263 0 60 0C43.9737 0 28.906 6.24135 17.5737 17.5737C6.24136 28.906 0 43.9737 0 60C0 74.6278 5.19926 88.4572 14.7271 99.3767C15.6361 100.421 16.5857 101.438 17.5737 102.426C17.806 102.659 18.0406 102.891 18.2775 103.117C18.909 103.728 19.5519 104.326 20.206 104.905C20.603 105.259 21.0045 105.607 21.4105 105.947C21.7286 106.216 22.0466 106.48 22.3692 106.739C22.3759 106.746 22.3805 106.75 22.3872 106.755C23.2827 107.477 24.194 108.171 25.1233 108.839C35.2308 116.089 47.3143 120 60 120C73.8925 120 87.0609 115.311 97.7053 106.68C98.5737 105.977 99.4241 105.246 100.259 104.49C100.996 103.823 101.718 103.135 102.426 102.426C102.65 102.203 102.873 101.977 103.092 101.75C103.701 101.123 104.292 100.484 104.869 99.8368C114.652 88.8474 120 74.8353 120 60C120 43.9737 113.759 28.906 102.426 17.5737ZM104.723 99.2752C104.159 99.9158 103.581 100.547 102.99 101.163C102.07 102.122 101.12 103.051 100.139 103.947C99.7669 104.289 99.3902 104.623 99.009 104.955C98.5759 105.332 98.1384 105.701 97.694 106.065C94.191 108.941 90.3541 111.422 86.2511 113.443C84.6293 114.244 82.9669 114.972 81.2662 115.624C74.6594 118.159 67.4887 119.549 60 119.549C52.7729 119.549 45.8436 118.254 39.4308 115.886C36.7985 114.916 34.2541 113.763 31.8113 112.444C31.4526 112.25 31.0963 112.053 30.7421 111.853C28.879 110.797 27.0767 109.644 25.3466 108.399C25.2902 108.359 25.2316 108.316 25.1752 108.275C23.9436 107.386 22.7459 106.45 21.5887 105.467C21.1647 105.108 20.7451 104.745 20.3323 104.373C19.6602 103.775 19.0015 103.159 18.3587 102.528C17.1406 101.335 15.9767 100.092 14.8647 98.7993C5.88497 88.3692 0.451128 74.8083 0.451128 60C0.451128 27.1647 27.1647 0.451128 60 0.451128C92.8353 0.451128 119.549 27.1647 119.549 60C119.549 75.0361 113.948 88.7865 104.723 99.2752Z" fill="#3F3D56"/>
<path d="M102.426 17.5737L101.719 18.2808V18.2808L102.426 17.5737ZM17.5737 17.5737L18.2808 18.2808V18.2808L17.5737 17.5737ZM14.7271 99.3767L15.4814 98.7202L15.4806 98.7192L14.7271 99.3767ZM17.5737 102.426L18.2808 101.719L17.5737 102.426ZM18.2775 103.117L18.9729 102.398L18.9671 102.392L18.2775 103.117ZM20.206 104.905L20.8717 104.159L20.8693 104.157L20.206 104.905ZM21.4105 105.947L22.0555 105.183L22.0532 105.181L21.4105 105.947ZM22.3692 106.739L23.0763 106.032L23.038 105.994L22.9959 105.96L22.3692 106.739ZM22.3872 106.755L23.0148 105.976L22.9799 105.948L22.9427 105.923L22.3872 106.755ZM25.1233 108.839L24.5398 109.651L24.5405 109.652L25.1233 108.839ZM97.7053 106.68L97.0757 105.904L97.0755 105.904L97.7053 106.68ZM100.259 104.49L99.5876 103.749L99.5875 103.749L100.259 104.49ZM102.426 102.426L103.133 103.133L103.133 103.133L102.426 102.426ZM103.092 101.75L102.374 101.053L102.371 101.057L103.092 101.75ZM104.869 99.8368L105.615 100.502L105.616 100.502L104.869 99.8368ZM104.723 99.2752L105.473 99.9359L105.473 99.9356L104.723 99.2752ZM102.99 101.163L103.712 101.856L103.712 101.856L102.99 101.163ZM100.139 103.947L99.465 103.208L99.4615 103.211L100.139 103.947ZM99.009 104.955L98.3527 104.2L98.3527 104.2L99.009 104.955ZM97.694 106.065L97.0612 105.29L97.0595 105.292L97.694 106.065ZM86.2511 113.443L85.8092 112.546L85.8084 112.546L86.2511 113.443ZM81.2662 115.624L80.9083 114.69L80.9079 114.69L81.2662 115.624ZM39.4308 115.886L39.7773 114.948L39.7766 114.947L39.4308 115.886ZM31.8113 112.444L31.3355 113.323L31.336 113.323L31.8113 112.444ZM30.7421 111.853L31.2353 110.983L31.2351 110.983L30.7421 111.853ZM25.3466 108.399L24.7623 109.211L24.7625 109.211L25.3466 108.399ZM25.1752 108.275L24.59 109.086L24.5909 109.087L25.1752 108.275ZM21.5887 105.467L22.2363 104.705L22.2345 104.703L21.5887 105.467ZM20.3323 104.373L21.002 103.63L20.9969 103.626L20.3323 104.373ZM18.3587 102.528L19.0595 101.814L19.0584 101.813L18.3587 102.528ZM14.8647 98.7993L15.6227 98.147L15.6225 98.1468L14.8647 98.7993ZM103.133 16.8666C91.6136 5.34671 76.2915 -1 60 -1V1C75.7611 1 90.5744 7.13599 101.719 18.2808L103.133 16.8666ZM60 -1C43.7085 -1 28.3864 5.34671 16.8666 16.8666L18.2808 18.2808C29.4256 7.13599 44.2389 1 60 1V-1ZM16.8666 16.8666C5.34672 28.3864 -1 43.7085 -1 60H1C1 44.2389 7.136 29.4256 18.2808 18.2808L16.8666 16.8666ZM-1 60C-1 74.869 4.28648 88.9321 13.9736 100.034L15.4806 98.7192C6.11204 87.9822 1 74.3866 1 60H-1ZM13.9728 100.033C14.8971 101.095 15.8625 102.129 16.8666 103.133L18.2808 101.719C17.309 100.747 16.3751 99.7469 15.4814 98.7202L13.9728 100.033ZM16.8666 103.133C17.1006 103.367 17.342 103.607 17.5878 103.841L18.9671 102.392C18.7392 102.175 18.5114 101.95 18.2808 101.719L16.8666 103.133ZM17.582 103.835C18.2231 104.456 18.8767 105.063 19.5428 105.654L20.8693 104.157C20.2271 103.588 19.595 103 18.9729 102.398L17.582 103.835ZM19.5403 105.652C19.9449 106.012 20.354 106.366 20.7678 106.713L22.0532 105.181C21.655 104.847 21.2612 104.506 20.8717 104.159L19.5403 105.652ZM20.7656 106.712C21.0877 106.983 21.4121 107.253 21.7425 107.518L22.9959 105.96C22.6812 105.707 22.3694 105.448 22.0555 105.183L20.7656 106.712ZM21.6621 107.446C21.6628 107.447 21.6688 107.453 21.6754 107.459C21.6826 107.466 21.6943 107.478 21.7091 107.491C21.7419 107.521 21.7825 107.554 21.8318 107.586L22.9427 105.923C23.0296 105.981 23.0902 106.046 23.0763 106.032L21.6621 107.446ZM21.7597 107.533C22.6692 108.267 23.5951 108.972 24.5398 109.651L25.7068 108.027C24.7929 107.37 23.8963 106.687 23.0148 105.976L21.7597 107.533ZM24.5405 109.652C34.8185 117.024 47.1059 121 60 121V119C47.5226 119 35.6432 115.154 25.7061 108.027L24.5405 109.652ZM60 121C74.1212 121 87.5121 116.232 98.3351 107.457L97.0755 105.904C86.6097 114.389 73.6637 119 60 119V121ZM98.3349 107.457C99.2183 106.741 100.083 105.999 100.93 105.232L99.5875 103.749C98.7656 104.493 97.9291 105.212 97.0757 105.904L98.3349 107.457ZM100.93 105.232C101.68 104.552 102.414 103.853 103.133 103.133L101.719 101.719C101.022 102.416 100.312 103.093 99.5876 103.749L100.93 105.232ZM103.133 103.133C103.359 102.908 103.587 102.677 103.813 102.442L102.371 101.057C102.158 101.278 101.94 101.498 101.719 101.719L103.133 103.133ZM103.809 102.446C104.429 101.808 105.03 101.159 105.615 100.502L104.123 99.1712C103.554 99.8093 102.972 100.437 102.374 101.053L103.809 102.446ZM105.616 100.502C115.562 89.3289 121 75.0801 121 60H119C119 74.5906 113.742 88.3659 104.122 99.1719L105.616 100.502ZM121 60C121 43.7085 114.653 28.3864 103.133 16.8666L101.719 18.2808C112.864 29.4256 119 44.2389 119 60H121ZM103.972 98.6144C103.416 99.2457 102.849 99.8665 102.269 100.471L103.712 101.856C104.314 101.228 104.901 100.586 105.473 99.9359L103.972 98.6144ZM102.269 100.471C101.363 101.414 100.429 102.328 99.465 103.208L100.813 104.685C101.812 103.774 102.777 102.829 103.712 101.856L102.269 100.471ZM99.4615 103.211C99.0986 103.546 98.7295 103.873 98.3527 104.2L99.6653 105.709C100.051 105.374 100.435 105.033 100.817 104.682L99.4615 103.211ZM98.3527 104.2C97.9267 104.571 97.497 104.934 97.0612 105.29L98.3268 106.839C98.7797 106.469 99.2252 106.092 99.6653 105.709L98.3527 104.2ZM97.0595 105.292C93.6152 108.119 89.8429 110.559 85.8092 112.546L86.693 114.34C90.8654 112.285 94.7668 109.762 98.3285 106.838L97.0595 105.292ZM85.8084 112.546C84.214 113.333 82.5798 114.05 80.9083 114.69L81.6241 116.558C83.354 115.895 85.0447 115.154 86.6938 114.34L85.8084 112.546ZM80.9079 114.69C74.4135 117.183 67.3642 118.549 60 118.549V120.549C67.6133 120.549 74.9053 119.136 81.6245 116.558L80.9079 114.69ZM60 118.549C52.8932 118.549 46.0811 117.276 39.7773 114.948L39.0844 116.824C45.6062 119.232 52.6527 120.549 60 120.549V118.549ZM39.7766 114.947C37.1893 113.994 34.6882 112.861 32.2865 111.564L31.336 113.323C33.8201 114.665 36.4077 115.838 39.0851 116.824L39.7766 114.947ZM32.287 111.564C31.9327 111.372 31.5823 111.179 31.2353 110.983L30.249 112.723C30.6102 112.927 30.9726 113.127 31.3355 113.323L32.287 111.564ZM31.2351 110.983C29.4029 109.944 27.6311 108.811 25.9308 107.588L24.7625 109.211C26.5223 110.477 28.355 111.65 30.2492 112.723L31.2351 110.983ZM25.9309 107.588C25.9044 107.569 25.8772 107.549 25.8481 107.528C25.8196 107.507 25.7894 107.485 25.7595 107.464L24.5909 109.087C24.6174 109.106 24.6447 109.126 24.6737 109.147C24.7022 109.167 24.7324 109.189 24.7623 109.211L25.9309 107.588ZM25.7604 107.464C24.5495 106.59 23.3726 105.671 22.2363 104.705L20.9411 106.229C22.1191 107.23 23.3377 108.182 24.59 109.086L25.7604 107.464ZM22.2345 104.703C21.8161 104.35 21.4049 103.994 21.002 103.63L19.6627 105.116C20.0854 105.497 20.5132 105.867 20.943 106.23L22.2345 104.703ZM20.9969 103.626C20.3371 103.039 19.6906 102.435 19.0595 101.814L17.6578 103.241C18.3125 103.884 18.9832 104.511 19.6678 105.12L20.9969 103.626ZM19.0584 101.813C17.8609 100.64 16.7164 99.4182 15.6227 98.147L14.1066 99.4515C15.237 100.765 16.4203 102.029 17.6589 103.242L19.0584 101.813ZM15.6225 98.1468C6.79256 87.8907 1.45113 74.5591 1.45113 60H-0.548872C-0.548872 75.0575 4.97738 88.8477 14.1068 99.4517L15.6225 98.1468ZM1.45113 60C1.45113 27.7169 27.717 1.45113 60 1.45113V-0.548872C26.6124 -0.548872 -0.548872 26.6124 -0.548872 60H1.45113ZM60 1.45113C92.283 1.45113 118.549 27.7169 118.549 60H120.549C120.549 26.6124 93.3876 -0.548872 60 -0.548872V1.45113ZM118.549 60C118.549 74.7831 113.043 88.301 103.972 98.6147L105.473 99.9356C114.853 89.2719 120.549 75.2891 120.549 60H118.549Z" fill="#3F3D56" mask="url(#path-5-inside-1_102_255)"/>
</g>
<defs>
<clipPath id="clip0_102_255">
<rect width="120" height="120" fill="white"/>
</clipPath>
</defs>
</svg>
