<svg width="395" height="201" viewBox="0 0 395 201" fill="none" xmlns="http://www.w3.org/2000/svg">
<rect width="502.684" height="212.818" transform="matrix(1 0 0 -1 -71 366)" fill="#304155"/>
<path fill-rule="evenodd" clip-rule="evenodd" d="M620.056 24.0532H610.433C600.81 24.0532 581.029 24.0532 561.783 54.9636C542.537 85.8741 522.756 147.695 503.51 178.605C483.729 209.516 464.483 209.516 445.236 170.878C425.455 132.24 406.209 54.9636 386.963 35.6446C367.182 16.3256 347.936 54.9636 328.69 82.0103C308.909 109.057 289.663 124.512 269.882 132.24C250.635 139.967 231.389 139.967 211.608 132.24C192.362 124.512 173.116 109.057 153.335 93.6017C134.089 78.1465 114.842 62.6913 95.0616 74.2827C75.8154 85.8741 56.0345 124.512 36.7883 116.785C17.542 109.057 -2.23883 54.9636 -11.8619 27.917L-21.4851 0.870361V209.516H-11.8619C-2.23883 209.516 17.542 209.516 36.7883 209.516C56.0345 209.516 75.8154 209.516 95.0616 209.516C114.842 209.516 134.089 209.516 153.335 209.516C173.116 209.516 192.362 209.516 211.608 209.516C231.389 209.516 250.635 209.516 269.882 209.516C289.663 209.516 308.909 209.516 328.69 209.516C347.936 209.516 367.182 209.516 386.963 209.516C406.209 209.516 425.455 209.516 445.236 209.516C464.483 209.516 483.729 209.516 503.51 209.516C522.756 209.516 542.537 209.516 561.783 209.516C581.029 209.516 600.81 209.516 610.433 209.516H620.056V24.0532Z" fill="#304155"/>
</svg>
