<svg width="392" height="179" viewBox="0 0 392 179" fill="none" xmlns="http://www.w3.org/2000/svg">
<rect x="-84" y="-187" width="502.684" height="212.818" fill="#304155"/>
<path fill-rule="evenodd" clip-rule="evenodd" d="M607.056 154.947H597.433C587.81 154.947 568.029 154.947 548.783 124.036C529.537 93.1259 509.756 31.305 490.51 0.394557C470.729 -30.5159 451.483 -30.5159 432.236 8.12217C412.455 46.7602 393.209 124.036 373.963 143.355C354.182 162.674 334.936 124.036 315.69 96.9897C295.909 69.9431 276.663 54.4878 256.882 46.7602C237.635 39.0326 218.389 39.0326 198.608 46.7602C179.362 54.4878 160.116 69.9431 140.335 85.3983C121.089 100.854 101.842 116.309 82.0616 104.717C62.8154 93.1259 43.0345 54.4878 23.7883 62.2155C4.54202 69.9431 -15.2388 124.036 -24.862 151.083L-34.4851 178.13V-30.5159H-24.862C-15.2388 -30.5159 4.54202 -30.5159 23.7883 -30.5159C43.0345 -30.5159 62.8154 -30.5159 82.0616 -30.5159C101.842 -30.5159 121.089 -30.5159 140.335 -30.5159C160.116 -30.5159 179.362 -30.5159 198.608 -30.5159C218.389 -30.5159 237.635 -30.5159 256.882 -30.5159C276.663 -30.5159 295.909 -30.5159 315.69 -30.5159C334.936 -30.5159 354.182 -30.5159 373.963 -30.5159C393.209 -30.5159 412.455 -30.5159 432.236 -30.5159C451.483 -30.5159 470.729 -30.5159 490.51 -30.5159C509.756 -30.5159 529.537 -30.5159 548.783 -30.5159C568.029 -30.5159 587.81 -30.5159 597.433 -30.5159H607.056V154.947Z" fill="#304155"/>
</svg>
