<svg width="392" height="159" viewBox="0 0 392 159" fill="none" xmlns="http://www.w3.org/2000/svg">
<rect width="502.684" height="212.818" transform="matrix(1 0 0 -1 -53 366)" fill="#304155" fill-opacity="0.9"/>
<path fill-rule="evenodd" clip-rule="evenodd" d="M638.056 24.0532H628.433C618.81 24.0532 599.029 24.0532 579.783 54.9636C560.537 85.8741 540.756 147.695 521.51 178.605C501.729 209.516 482.483 209.516 463.236 170.878C443.455 132.24 424.209 54.9636 404.963 35.6446C385.182 16.3256 365.936 54.9636 346.69 82.0103C326.909 109.057 307.663 124.512 287.882 132.24C268.635 139.967 249.389 139.967 229.608 132.24C210.362 124.512 191.116 109.057 171.335 93.6017C152.089 78.1465 132.842 62.6913 113.062 74.2827C93.8154 85.8741 74.0345 124.512 54.7883 116.785C35.542 109.057 15.7612 54.9636 6.13806 27.917L-3.48511 0.870361V209.516H6.13806C15.7612 209.516 35.542 209.516 54.7883 209.516C74.0345 209.516 93.8154 209.516 113.062 209.516C132.842 209.516 152.089 209.516 171.335 209.516C191.116 209.516 210.362 209.516 229.608 209.516C249.389 209.516 268.635 209.516 287.882 209.516C307.663 209.516 326.909 209.516 346.69 209.516C365.936 209.516 385.182 209.516 404.963 209.516C424.209 209.516 443.455 209.516 463.236 209.516C482.483 209.516 501.729 209.516 521.51 209.516C540.756 209.516 560.537 209.516 579.783 209.516C599.029 209.516 618.81 209.516 628.433 209.516H638.056V24.0532Z" fill="#304155" fill-opacity="0.9"/>
</svg>
